{"title":"mirror.mirror.2012.swesub.iphone-sHaDoWlAnD.mp4","uid":7494617,"size":651492810,"categoryP":"video","categoryS":"handheld","magnet":"?xt=urn:btih:d10ac0f16244bc61c342bf064a07930f83ff2fc9&amp;dn=mirror.mirror.2012.swesub.iphone-sHaDoWlAnD.mp4&amp;tr=udp%3A%2F%2Ftracker.openbittorrent.com%3A80&amp;tr=udp%3A%2F%2Fopen.demonii.com%3A1337&amp;tr=udp%3A%2F%2Ftracker.coppersurfer.tk%3A6969&amp;tr=udp%3A%2F%2Fexodus.desync.com%3A6969","seeders":0,"leechers":0,"uploader":null,"files":1,"time":1343840780,"description":"mp4 re-encode with swedish subs\n\nGeneral\n\nFormat                           : MPEG-4\nFormat profile                   : Base Media / Version 2\nCodec ID                         : mp42\nFile size                        : 621 MiB\nDuration                         : 1h 45mn\nOverall bit rate                 : 821 Kbps\nWriting application              : mp4creator 1.6.1d\n\nVideo\nID                               : 1\nFormat                           : MPEG-4 Visual\nFormat profile                   : Simple@L1\nFormat settings, BVOP            : No\nFormat settings, QPel            : No\nFormat settings, GMC             : No warppoints\nFormat settings, Matrix          : Default (H.263)\nCodec ID                         : 20\nDuration                         : 1h 45mn\nBit rate mode                    : Variable\nBit rate                         : 575 Kbps\nMaximum bit rate                 : 2 585 Kbps\nWidth                            : 480 pixels\nHeight                           : 320 pixels\nDisplay aspect ratio             : 16:9\nFrame rate mode                  : Constant\nFrame rate                       : 24.000 fps\nColor space                      : YUV\nChroma subsampling               : 4:2:0\nBit depth                        : 8 bits\nScan type                        : Progressive\nCompression mode                 : Lossy\nBits/(Pixel*Frame)               : 0.156\nStream size                      : 436 MiB (70%)\nLanguage                         : English\n\n\nAudio\nID                               : 2\nFormat                           : AAC\nFormat/Info                      : Advanced Audio Codec\nFormat profile                   : LC\nCodec ID                         : 40\nDuration                         : 1h 45mn\nBit rate mode                    : Variable\nBit rate                         : 243 Kbps\nMaximum bit rate                 : 335 Kbps\nChannel(s)                       : 2 channels\nChannel positions                : Front: L R\nSampling rate                    : 44.1 KHz\nCompression mode                 : Lossy\nStream size                      : 184 MiB (30%)\nLanguage                         : English\nEncoded date                     : UTC 2012-07-24 01:01:55\nTagged date                      : UTC 2012-07-24 01:02:22\n\n","torrent":{"xt":"urn:btih:d10ac0f16244bc61c342bf064a07930f83ff2fc9","amp;dn":"mirror.mirror.2012.swesub.iphone-sHaDoWlAnD.mp4","amp;tr":["udp%3A%2F%2Ftracker.openbittorrent.com%3A80","udp%3A%2F%2Fopen.demonii.com%3A1337","udp%3A%2F%2Ftracker.coppersurfer.tk%3A6969","udp%3A%2F%2Fexodus.desync.com%3A6969"],"infoHash":"d10ac0f16244bc61c342bf064a07930f83ff2fc9","infoHashBuffer":{"type":"Buffer","data":[209,10,192,241,98,68,188,97,195,66,191,6,74,7,147,15,131,255,47,201]},"announce":[],"urlList":[]}}